<svg xmlns="http://www.w3.org/2000/svg" xmlns:xlink="http://www.w3.org/1999/xlink" width="300" height="203" viewBox="0 0 300 203"><defs><style>.a,.d{fill:#c50000;}.b,.c,.e,.f,.h,.n{fill:#fff;}.b{stroke:#c50000;}.c{font-size:13px;}.c,.f{font-family:Roboto-Medium, Roboto;font-weight:500;}.d,.e{stroke:rgba(254,191,46,0);}.f{font-size:37px;}.g{font-size:14px;}.g,.i{font-family:Roboto-Regular, Roboto;}.h{stroke:#dfe3e6;}.i{fill:#526975;font-size:8px;}.j{fill:#fef1f1;}.j,.k{stroke:#fff;}.j,.k,.m,.n{stroke-width:0.5px;}.k{fill:#e1fff2;}.l{fill:url(#a);}.m,.p{fill:none;}.m,.n{stroke:#000;}.o{stroke:none;}</style><linearGradient id="a" x1="0.5" x2="0.5" y2="1" gradientUnits="objectBoundingBox"><stop offset="0" stop-color="#9d9d9d"/><stop offset="1" stop-color="#cfcfcf" stop-opacity="0.239"/></linearGradient></defs><g transform="translate(-1206 -692)"><rect class="a" width="300" height="23" transform="translate(1206 692)"/><g class="b" transform="translate(1206 715)"><rect class="o" width="300" height="180"/><rect class="p" x="0.5" y="0.5" width="299" height="179"/></g><text class="c" transform="translate(1216 708)"><tspan x="0" y="0">Risk</tspan></text><g transform="translate(1216 833)"><g class="d"><rect class="o" width="280" height="52"/><rect class="p" x="0.5" y="0.5" width="279" height="51"/></g><g class="e" transform="translate(191 3)"><rect class="o" width="86" height="46"/><rect class="p" x="0.5" y="0.5" width="85" height="45"/></g><text class="f" transform="translate(12 39)"><tspan x="0" y="0">20%</tspan></text><text class="g" transform="translate(234 31)"><tspan x="-13.166" y="0">Risk</tspan></text></g><g class="h" transform="translate(1216 725)"><rect class="o" width="280" height="106"/><rect class="p" x="0.5" y="0.5" width="279" height="105"/></g><text class="i" transform="translate(1231 820)"><tspan x="-4.492" y="0">0</tspan></text><text class="i" transform="translate(1231 741)"><tspan x="-13.477" y="0">100</tspan></text><g transform="translate(-3)"><rect class="j" width="8" height="8" transform="translate(1238 738)"/><rect class="j" width="8" height="8" transform="translate(1246 738)"/><rect class="j" width="8" height="8" transform="translate(1254 738)"/><rect class="j" width="8" height="8" transform="translate(1262 738)"/><rect class="j" width="8" height="8" transform="translate(1270 738)"/><rect class="j" width="8" height="8" transform="translate(1278 738)"/><rect class="j" width="8" height="8" transform="translate(1286 738)"/><rect class="j" width="8" height="8" transform="translate(1294 738)"/><rect class="j" width="8" height="8" transform="translate(1302 738)"/><rect class="j" width="8" height="8" transform="translate(1310 738)"/><rect class="j" width="8" height="8" transform="translate(1318 738)"/><rect class="j" width="8" height="8" transform="translate(1326 738)"/><rect class="j" width="8" height="8" transform="translate(1334 738)"/><rect class="j" width="8" height="8" transform="translate(1342 738)"/><rect class="j" width="8" height="8" transform="translate(1350 738)"/><rect class="j" width="8" height="8" transform="translate(1358 738)"/><rect class="j" width="8" height="8" transform="translate(1366 738)"/><rect class="j" width="8" height="8" transform="translate(1374 738)"/><rect class="j" width="8" height="8" transform="translate(1382 738)"/><rect class="j" width="8" height="8" transform="translate(1390 738)"/><rect class="j" width="8" height="8" transform="translate(1398 738)"/><rect class="j" width="8" height="8" transform="translate(1406 738)"/><rect class="j" width="8" height="8" transform="translate(1414 738)"/><rect class="j" width="8" height="8" transform="translate(1422 738)"/><rect class="j" width="8" height="8" transform="translate(1430 738)"/><rect class="j" width="8" height="8" transform="translate(1438 738)"/><rect class="j" width="8" height="8" transform="translate(1446 738)"/><rect class="j" width="8" height="8" transform="translate(1454 738)"/><rect class="j" width="8" height="8" transform="translate(1462 738)"/><rect class="j" width="8" height="8" transform="translate(1470 738)"/><rect class="j" width="8" height="8" transform="translate(1478 738)"/><rect class="j" width="8" height="8" transform="translate(1486 738)"/><rect class="j" width="8" height="8" transform="translate(1238 746)"/><rect class="j" width="8" height="8" transform="translate(1246 746)"/><rect class="j" width="8" height="8" transform="translate(1254 746)"/><rect class="j" width="8" height="8" transform="translate(1262 746)"/><rect class="j" width="8" height="8" transform="translate(1270 746)"/><rect class="j" width="8" height="8" transform="translate(1278 746)"/><rect class="j" width="8" height="8" transform="translate(1286 746)"/><rect class="j" width="8" height="8" transform="translate(1294 746)"/><rect class="j" width="8" height="8" transform="translate(1302 746)"/><rect class="j" width="8" height="8" transform="translate(1310 746)"/><rect class="j" width="8" height="8" transform="translate(1318 746)"/><rect class="j" width="8" height="8" transform="translate(1326 746)"/><rect class="j" width="8" height="8" transform="translate(1334 746)"/><rect class="j" width="8" height="8" transform="translate(1342 746)"/><rect class="j" width="8" height="8" transform="translate(1350 746)"/><rect class="j" width="8" height="8" transform="translate(1358 746)"/><rect class="j" width="8" height="8" transform="translate(1366 746)"/><rect class="j" width="8" height="8" transform="translate(1374 746)"/><rect class="j" width="8" height="8" transform="translate(1382 746)"/><rect class="j" width="8" height="8" transform="translate(1390 746)"/><rect class="j" width="8" height="8" transform="translate(1398 746)"/><rect class="j" width="8" height="8" transform="translate(1406 746)"/><rect class="j" width="8" height="8" transform="translate(1414 746)"/><rect class="j" width="8" height="8" transform="translate(1422 746)"/><rect class="j" width="8" height="8" transform="translate(1430 746)"/><rect class="j" width="8" height="8" transform="translate(1438 746)"/><rect class="j" width="8" height="8" transform="translate(1446 746)"/><rect class="j" width="8" height="8" transform="translate(1454 746)"/><rect class="j" width="8" height="8" transform="translate(1462 746)"/><rect class="j" width="8" height="8" transform="translate(1470 746)"/><rect class="j" width="8" height="8" transform="translate(1478 746)"/><rect class="j" width="8" height="8" transform="translate(1486 746)"/><rect class="j" width="8" height="8" transform="translate(1238 754)"/><rect class="j" width="8" height="8" transform="translate(1246 754)"/><rect class="j" width="8" height="8" transform="translate(1254 754)"/><rect class="j" width="8" height="8" transform="translate(1262 754)"/><rect class="j" width="8" height="8" transform="translate(1270 754)"/><rect class="j" width="8" height="8" transform="translate(1278 754)"/><rect class="j" width="8" height="8" transform="translate(1286 754)"/><rect class="j" width="8" height="8" transform="translate(1294 754)"/><rect class="j" width="8" height="8" transform="translate(1302 754)"/><rect class="j" width="8" height="8" transform="translate(1310 754)"/><rect class="j" width="8" height="8" transform="translate(1318 754)"/><rect class="j" width="8" height="8" transform="translate(1326 754)"/><rect class="j" width="8" height="8" transform="translate(1334 754)"/><rect class="j" width="8" height="8" transform="translate(1342 754)"/><rect class="j" width="8" height="8" transform="translate(1350 754)"/><rect class="j" width="8" height="8" transform="translate(1358 754)"/><rect class="j" width="8" height="8" transform="translate(1366 754)"/><rect class="j" width="8" height="8" transform="translate(1374 754)"/><rect class="j" width="8" height="8" transform="translate(1382 754)"/><rect class="j" width="8" height="8" transform="translate(1390 754)"/><rect class="j" width="8" height="8" transform="translate(1398 754)"/><rect class="j" width="8" height="8" transform="translate(1406 754)"/><rect class="j" width="8" height="8" transform="translate(1414 754)"/><rect class="j" width="8" height="8" transform="translate(1422 754)"/><rect class="j" width="8" height="8" transform="translate(1430 754)"/><rect class="j" width="8" height="8" transform="translate(1438 754)"/><rect class="j" width="8" height="8" transform="translate(1446 754)"/><rect class="j" width="8" height="8" transform="translate(1454 754)"/><rect class="j" width="8" height="8" transform="translate(1462 754)"/><rect class="j" width="8" height="8" transform="translate(1470 754)"/><rect class="j" width="8" height="8" transform="translate(1478 754)"/><rect class="j" width="8" height="8" transform="translate(1486 754)"/><rect class="j" width="8" height="8" transform="translate(1238 762)"/><rect class="j" width="8" height="8" transform="translate(1246 762)"/><rect class="j" width="8" height="8" transform="translate(1254 762)"/><rect class="j" width="8" height="8" transform="translate(1262 762)"/><rect class="j" width="8" height="8" transform="translate(1270 762)"/><rect class="j" width="8" height="8" transform="translate(1278 762)"/><rect class="j" width="8" height="8" transform="translate(1286 762)"/><rect class="j" width="8" height="8" transform="translate(1294 762)"/><rect class="j" width="8" height="8" transform="translate(1302 762)"/><rect class="j" width="8" height="8" transform="translate(1310 762)"/><rect class="j" width="8" height="8" transform="translate(1318 762)"/><rect class="j" width="8" height="8" transform="translate(1326 762)"/><rect class="j" width="8" height="8" transform="translate(1334 762)"/><rect class="j" width="8" height="8" transform="translate(1342 762)"/><rect class="j" width="8" height="8" transform="translate(1350 762)"/><rect class="j" width="8" height="8" transform="translate(1358 762)"/><rect class="j" width="8" height="8" transform="translate(1366 762)"/><rect class="j" width="8" height="8" transform="translate(1374 762)"/><rect class="j" width="8" height="8" transform="translate(1382 762)"/><rect class="j" width="8" height="8" transform="translate(1390 762)"/><rect class="j" width="8" height="8" transform="translate(1398 762)"/><rect class="j" width="8" height="8" transform="translate(1406 762)"/><rect class="j" width="8" height="8" transform="translate(1414 762)"/><rect class="j" width="8" height="8" transform="translate(1422 762)"/><rect class="j" width="8" height="8" transform="translate(1430 762)"/><rect class="j" width="8" height="8" transform="translate(1438 762)"/><rect class="j" width="8" height="8" transform="translate(1446 762)"/><rect class="j" width="8" height="8" transform="translate(1454 762)"/><rect class="j" width="8" height="8" transform="translate(1462 762)"/><rect class="j" width="8" height="8" transform="translate(1470 762)"/><rect class="j" width="8" height="8" transform="translate(1478 762)"/><rect class="j" width="8" height="8" transform="translate(1486 762)"/><rect class="j" width="8" height="8" transform="translate(1238 770)"/><rect class="j" width="8" height="8" transform="translate(1246 770)"/><rect class="j" width="8" height="8" transform="translate(1254 770)"/><rect class="j" width="8" height="8" transform="translate(1262 770)"/><rect class="j" width="8" height="8" transform="translate(1270 770)"/><rect class="j" width="8" height="8" transform="translate(1278 770)"/><rect class="j" width="8" height="8" transform="translate(1286 770)"/><rect class="j" width="8" height="8" transform="translate(1294 770)"/><rect class="j" width="8" height="8" transform="translate(1302 770)"/><rect class="j" width="8" height="8" transform="translate(1310 770)"/><rect class="j" width="8" height="8" transform="translate(1318 770)"/><rect class="j" width="8" height="8" transform="translate(1326 770)"/><rect class="j" width="8" height="8" transform="translate(1334 770)"/><rect class="j" width="8" height="8" transform="translate(1342 770)"/><rect class="j" width="8" height="8" transform="translate(1350 770)"/><rect class="j" width="8" height="8" transform="translate(1358 770)"/><rect class="j" width="8" height="8" transform="translate(1366 770)"/><rect class="j" width="8" height="8" transform="translate(1374 770)"/><rect class="j" width="8" height="8" transform="translate(1382 770)"/><rect class="j" width="8" height="8" transform="translate(1390 770)"/><rect class="j" width="8" height="8" transform="translate(1398 770)"/><rect class="j" width="8" height="8" transform="translate(1406 770)"/><rect class="j" width="8" height="8" transform="translate(1414 770)"/><rect class="j" width="8" height="8" transform="translate(1422 770)"/><rect class="j" width="8" height="8" transform="translate(1430 770)"/><rect class="j" width="8" height="8" transform="translate(1438 770)"/><rect class="j" width="8" height="8" transform="translate(1446 770)"/><rect class="j" width="8" height="8" transform="translate(1454 770)"/><rect class="j" width="8" height="8" transform="translate(1462 770)"/><rect class="j" width="8" height="8" transform="translate(1470 770)"/><rect class="j" width="8" height="8" transform="translate(1478 770)"/><rect class="j" width="8" height="8" transform="translate(1486 770)"/><rect class="j" width="8" height="8" transform="translate(1238 778)"/><rect class="j" width="8" height="8" transform="translate(1246 778)"/><rect class="j" width="8" height="8" transform="translate(1254 778)"/><rect class="j" width="8" height="8" transform="translate(1262 778)"/><rect class="j" width="8" height="8" transform="translate(1270 778)"/><rect class="j" width="8" height="8" transform="translate(1278 778)"/><rect class="j" width="8" height="8" transform="translate(1286 778)"/><rect class="j" width="8" height="8" transform="translate(1294 778)"/><rect class="j" width="8" height="8" transform="translate(1302 778)"/><rect class="j" width="8" height="8" transform="translate(1310 778)"/><rect class="j" width="8" height="8" transform="translate(1318 778)"/><rect class="j" width="8" height="8" transform="translate(1326 778)"/><rect class="j" width="8" height="8" transform="translate(1334 778)"/><rect class="j" width="8" height="8" transform="translate(1342 778)"/><rect class="j" width="8" height="8" transform="translate(1350 778)"/><rect class="j" width="8" height="8" transform="translate(1358 778)"/><rect class="j" width="8" height="8" transform="translate(1366 778)"/><rect class="j" width="8" height="8" transform="translate(1374 778)"/><rect class="j" width="8" height="8" transform="translate(1382 778)"/><rect class="j" width="8" height="8" transform="translate(1390 778)"/><rect class="j" width="8" height="8" transform="translate(1398 778)"/><rect class="j" width="8" height="8" transform="translate(1406 778)"/><rect class="j" width="8" height="8" transform="translate(1414 778)"/><rect class="j" width="8" height="8" transform="translate(1422 778)"/><rect class="j" width="8" height="8" transform="translate(1430 778)"/><rect class="j" width="8" height="8" transform="translate(1438 778)"/><rect class="j" width="8" height="8" transform="translate(1446 778)"/><rect class="j" width="8" height="8" transform="translate(1454 778)"/><rect class="j" width="8" height="8" transform="translate(1462 778)"/><rect class="j" width="8" height="8" transform="translate(1470 778)"/><rect class="j" width="8" height="8" transform="translate(1478 778)"/><rect class="j" width="8" height="8" transform="translate(1486 778)"/><rect class="k" width="8" height="8" transform="translate(1238 786)"/><rect class="k" width="8" height="8" transform="translate(1246 786)"/><rect class="k" width="8" height="8" transform="translate(1254 786)"/><rect class="k" width="8" height="8" transform="translate(1262 786)"/><rect class="k" width="8" height="8" transform="translate(1270 786)"/><rect class="k" width="8" height="8" transform="translate(1278 786)"/><rect class="k" width="8" height="8" transform="translate(1286 786)"/><rect class="k" width="8" height="8" transform="translate(1294 786)"/><rect class="k" width="8" height="8" transform="translate(1302 786)"/><rect class="k" width="8" height="8" transform="translate(1310 786)"/><rect class="k" width="8" height="8" transform="translate(1318 786)"/><rect class="k" width="8" height="8" transform="translate(1326 786)"/><rect class="k" width="8" height="8" transform="translate(1334 786)"/><rect class="k" width="8" height="8" transform="translate(1342 786)"/><rect class="k" width="8" height="8" transform="translate(1350 786)"/><rect class="k" width="8" height="8" transform="translate(1358 786)"/><rect class="k" width="8" height="8" transform="translate(1366 786)"/><rect class="k" width="8" height="8" transform="translate(1374 786)"/><rect class="k" width="8" height="8" transform="translate(1382 786)"/><rect class="k" width="8" height="8" transform="translate(1390 786)"/><rect class="k" width="8" height="8" transform="translate(1398 786)"/><rect class="k" width="8" height="8" transform="translate(1406 786)"/><rect class="k" width="8" height="8" transform="translate(1414 786)"/><rect class="k" width="8" height="8" transform="translate(1422 786)"/><rect class="k" width="8" height="8" transform="translate(1430 786)"/><rect class="k" width="8" height="8" transform="translate(1438 786)"/><rect class="k" width="8" height="8" transform="translate(1446 786)"/><rect class="k" width="8" height="8" transform="translate(1454 786)"/><rect class="k" width="8" height="8" transform="translate(1462 786)"/><rect class="k" width="8" height="8" transform="translate(1470 786)"/><rect class="k" width="8" height="8" transform="translate(1478 786)"/><rect class="k" width="8" height="8" transform="translate(1486 786)"/><rect class="k" width="8" height="8" transform="translate(1238 794)"/><rect class="k" width="8" height="8" transform="translate(1246 794)"/><rect class="k" width="8" height="8" transform="translate(1254 794)"/><rect class="k" width="8" height="8" transform="translate(1262 794)"/><rect class="k" width="8" height="8" transform="translate(1270 794)"/><rect class="k" width="8" height="8" transform="translate(1278 794)"/><rect class="k" width="8" height="8" transform="translate(1286 794)"/><rect class="k" width="8" height="8" transform="translate(1294 794)"/><rect class="k" width="8" height="8" transform="translate(1302 794)"/><rect class="k" width="8" height="8" transform="translate(1310 794)"/><rect class="k" width="8" height="8" transform="translate(1318 794)"/><rect class="k" width="8" height="8" transform="translate(1326 794)"/><rect class="k" width="8" height="8" transform="translate(1334 794)"/><rect class="k" width="8" height="8" transform="translate(1342 794)"/><rect class="k" width="8" height="8" transform="translate(1350 794)"/><rect class="k" width="8" height="8" transform="translate(1358 794)"/><rect class="k" width="8" height="8" transform="translate(1366 794)"/><rect class="k" width="8" height="8" transform="translate(1374 794)"/><rect class="k" width="8" height="8" transform="translate(1382 794)"/><rect class="k" width="8" height="8" transform="translate(1390 794)"/><rect class="k" width="8" height="8" transform="translate(1398 794)"/><rect class="k" width="8" height="8" transform="translate(1406 794)"/><rect class="k" width="8" height="8" transform="translate(1414 794)"/><rect class="k" width="8" height="8" transform="translate(1422 794)"/><rect class="k" width="8" height="8" transform="translate(1430 794)"/><rect class="k" width="8" height="8" transform="translate(1438 794)"/><rect class="k" width="8" height="8" transform="translate(1446 794)"/><rect class="k" width="8" height="8" transform="translate(1454 794)"/><rect class="k" width="8" height="8" transform="translate(1462 794)"/><rect class="k" width="8" height="8" transform="translate(1470 794)"/><rect class="k" width="8" height="8" transform="translate(1478 794)"/><rect class="k" width="8" height="8" transform="translate(1486 794)"/><rect class="k" width="8" height="8" transform="translate(1238 802)"/><rect class="k" width="8" height="8" transform="translate(1246 802)"/><rect class="k" width="8" height="8" transform="translate(1254 802)"/><rect class="k" width="8" height="8" transform="translate(1262 802)"/><rect class="k" width="8" height="8" transform="translate(1270 802)"/><rect class="k" width="8" height="8" transform="translate(1278 802)"/><rect class="k" width="8" height="8" transform="translate(1286 802)"/><rect class="k" width="8" height="8" transform="translate(1294 802)"/><rect class="k" width="8" height="8" transform="translate(1302 802)"/><rect class="k" width="8" height="8" transform="translate(1310 802)"/><rect class="k" width="8" height="8" transform="translate(1318 802)"/><rect class="k" width="8" height="8" transform="translate(1326 802)"/><rect class="k" width="8" height="8" transform="translate(1334 802)"/><rect class="k" width="8" height="8" transform="translate(1342 802)"/><rect class="k" width="8" height="8" transform="translate(1350 802)"/><rect class="k" width="8" height="8" transform="translate(1358 802)"/><rect class="k" width="8" height="8" transform="translate(1366 802)"/><rect class="k" width="8" height="8" transform="translate(1374 802)"/><rect class="k" width="8" height="8" transform="translate(1382 802)"/><rect class="k" width="8" height="8" transform="translate(1390 802)"/><rect class="k" width="8" height="8" transform="translate(1398 802)"/><rect class="k" width="8" height="8" transform="translate(1406 802)"/><rect class="k" width="8" height="8" transform="translate(1414 802)"/><rect class="k" width="8" height="8" transform="translate(1422 802)"/><rect class="k" width="8" height="8" transform="translate(1430 802)"/><rect class="k" width="8" height="8" transform="translate(1438 802)"/><rect class="k" width="8" height="8" transform="translate(1446 802)"/><rect class="k" width="8" height="8" transform="translate(1454 802)"/><rect class="k" width="8" height="8" transform="translate(1462 802)"/><rect class="k" width="8" height="8" transform="translate(1470 802)"/><rect class="k" width="8" height="8" transform="translate(1478 802)"/><rect class="k" width="8" height="8" transform="translate(1486 802)"/><rect class="k" width="8" height="8" transform="translate(1238 810)"/><rect class="k" width="8" height="8" transform="translate(1246 810)"/><rect class="k" width="8" height="8" transform="translate(1254 810)"/><rect class="k" width="8" height="8" transform="translate(1262 810)"/><rect class="k" width="8" height="8" transform="translate(1270 810)"/><rect class="k" width="8" height="8" transform="translate(1278 810)"/><rect class="k" width="8" height="8" transform="translate(1286 810)"/><rect class="k" width="8" height="8" transform="translate(1294 810)"/><rect class="k" width="8" height="8" transform="translate(1302 810)"/><rect class="k" width="8" height="8" transform="translate(1310 810)"/><rect class="k" width="8" height="8" transform="translate(1318 810)"/><rect class="k" width="8" height="8" transform="translate(1326 810)"/><rect class="k" width="8" height="8" transform="translate(1334 810)"/><rect class="k" width="8" height="8" transform="translate(1342 810)"/><rect class="k" width="8" height="8" transform="translate(1350 810)"/><rect class="k" width="8" height="8" transform="translate(1358 810)"/><rect class="k" width="8" height="8" transform="translate(1366 810)"/><rect class="k" width="8" height="8" transform="translate(1374 810)"/><rect class="k" width="8" height="8" transform="translate(1382 810)"/><rect class="k" width="8" height="8" transform="translate(1390 810)"/><rect class="k" width="8" height="8" transform="translate(1398 810)"/><rect class="k" width="8" height="8" transform="translate(1406 810)"/><rect class="k" width="8" height="8" transform="translate(1414 810)"/><rect class="k" width="8" height="8" transform="translate(1422 810)"/><rect class="k" width="8" height="8" transform="translate(1430 810)"/><rect class="k" width="8" height="8" transform="translate(1438 810)"/><rect class="k" width="8" height="8" transform="translate(1446 810)"/><rect class="k" width="8" height="8" transform="translate(1454 810)"/><rect class="k" width="8" height="8" transform="translate(1462 810)"/><rect class="k" width="8" height="8" transform="translate(1470 810)"/><rect class="k" width="8" height="8" transform="translate(1478 810)"/><rect class="k" width="8" height="8" transform="translate(1486 810)"/><rect class="k" width="8" height="8" transform="translate(1238 818)"/><rect class="k" width="8" height="8" transform="translate(1246 818)"/><rect class="k" width="8" height="8" transform="translate(1254 818)"/><rect class="k" width="8" height="8" transform="translate(1262 818)"/><rect class="k" width="8" height="8" transform="translate(1270 818)"/><rect class="k" width="8" height="8" transform="translate(1278 818)"/><rect class="k" width="8" height="8" transform="translate(1286 818)"/><rect class="k" width="8" height="8" transform="translate(1294 818)"/><rect class="k" width="8" height="8" transform="translate(1302 818)"/><rect class="k" width="8" height="8" transform="translate(1310 818)"/><rect class="k" width="8" height="8" transform="translate(1318 818)"/><rect class="k" width="8" height="8" transform="translate(1326 818)"/><rect class="k" width="8" height="8" transform="translate(1334 818)"/><rect class="k" width="8" height="8" transform="translate(1342 818)"/><rect class="k" width="8" height="8" transform="translate(1350 818)"/><rect class="k" width="8" height="8" transform="translate(1358 818)"/><rect class="k" width="8" height="8" transform="translate(1366 818)"/><rect class="k" width="8" height="8" transform="translate(1374 818)"/><rect class="k" width="8" height="8" transform="translate(1382 818)"/><rect class="k" width="8" height="8" transform="translate(1390 818)"/><rect class="k" width="8" height="8" transform="translate(1398 818)"/><rect class="k" width="8" height="8" transform="translate(1406 818)"/><rect class="k" width="8" height="8" transform="translate(1414 818)"/><rect class="k" width="8" height="8" transform="translate(1422 818)"/><rect class="k" width="8" height="8" transform="translate(1430 818)"/><rect class="k" width="8" height="8" transform="translate(1438 818)"/><rect class="k" width="8" height="8" transform="translate(1446 818)"/><rect class="k" width="8" height="8" transform="translate(1454 818)"/><rect class="k" width="8" height="8" transform="translate(1462 818)"/><rect class="k" width="8" height="8" transform="translate(1470 818)"/><rect class="k" width="8" height="8" transform="translate(1478 818)"/><rect class="k" width="8" height="8" transform="translate(1486 818)"/></g><path class="l" d="M1493.937,826l-255.916-.04V793.967l24.03-23.892,24.082-8.137,23.875-7.963,24,16.031,24.034,8.026H1382L1406.091,794h24.07l23.923,8.037h23.923l16.079,8.04Z" transform="translate(-3)"/><path class="m" d="M1238,793.939l24-23.877,23.936-8.125,24.095-7.922L1334,770.047l24.036,8.05h23.984l23.988,16.02h23.957l24.119,8.02h23.923l16.079,7.844" transform="translate(-3)"/><g transform="translate(-3)"><g class="n" transform="translate(1260 768)"><circle class="o" cx="2" cy="2" r="2"/><circle class="p" cx="2" cy="2" r="1.75"/></g><g class="n" transform="translate(1236 792)"><circle class="o" cx="2" cy="2" r="2"/><circle class="p" cx="2" cy="2" r="1.75"/></g><g class="n" transform="translate(1284 760)"><circle class="o" cx="2" cy="2" r="2"/><circle class="p" cx="2" cy="2" r="1.75"/></g><g class="n" transform="translate(1308 752)"><circle class="o" cx="2" cy="2" r="2"/><circle class="p" cx="2" cy="2" r="1.75"/></g><g class="n" transform="translate(1332 768)"><circle class="o" cx="2" cy="2" r="2"/><circle class="p" cx="2" cy="2" r="1.75"/></g><g class="n" transform="translate(1356 776)"><circle class="o" cx="2" cy="2" r="2"/><circle class="p" cx="2" cy="2" r="1.75"/></g><g class="n" transform="translate(1380 776)"><circle class="o" cx="2" cy="2" r="2"/><circle class="p" cx="2" cy="2" r="1.75"/></g><g class="n" transform="translate(1404 792)"><circle class="o" cx="2" cy="2" r="2"/><circle class="p" cx="2" cy="2" r="1.75"/></g><g class="n" transform="translate(1428 792)"><circle class="o" cx="2" cy="2" r="2"/><circle class="p" cx="2" cy="2" r="1.75"/></g><g class="n" transform="translate(1452 800)"><circle class="o" cx="2" cy="2" r="2"/><circle class="p" cx="2" cy="2" r="1.75"/></g><g class="n" transform="translate(1476 800)"><circle class="o" cx="2" cy="2" r="2"/><circle class="p" cx="2" cy="2" r="1.75"/></g><g class="n" transform="translate(1492 808)"><circle class="o" cx="2" cy="2" r="2"/><circle class="p" cx="2" cy="2" r="1.75"/></g></g></g></svg>