<svg xmlns="http://www.w3.org/2000/svg" xmlns:xlink="http://www.w3.org/1999/xlink" width="179.834" height="52" viewBox="0 0 179.834 52">
  <defs>
    <linearGradient id="linear-gradient" x1="-1.126" y1="5.045" x2="-2.126" y2="5.045" gradientUnits="objectBoundingBox">
      <stop offset="0" stop-color="#d50000"/>
      <stop offset="0.314" stop-color="#ee5a5a"/>
      <stop offset="1" stop-color="#ff9797"/>
    </linearGradient>
    <linearGradient id="linear-gradient-2" x1="-0.107" y1="0.063" x2="0.413" y2="-0.937" gradientUnits="objectBoundingBox">
      <stop offset="0" stop-color="#ff2e2e"/>
      <stop offset="0.425" stop-color="#d50000"/>
      <stop offset="1" stop-color="#950000"/>
    </linearGradient>
    <filter id="Path_1186" x="0" y="17.208" width="73.974" height="34.792" filterUnits="userSpaceOnUse">
      <feOffset dy="-3" input="SourceAlpha"/>
      <feGaussianBlur stdDeviation="3" result="blur"/>
      <feFlood flood-opacity="0.161"/>
      <feComposite operator="in" in2="blur"/>
      <feComposite in="SourceGraphic"/>
    </filter>
    <linearGradient id="linear-gradient-3" x1="-0.39" y1="4.402" x2="-1.39" y2="4.402" gradientUnits="objectBoundingBox">
      <stop offset="0" stop-color="#8e8e8e"/>
      <stop offset="1" stop-color="#006d15"/>
    </linearGradient>
    <linearGradient id="linear-gradient-4" y1="0.451" x2="1.032" y2="0.219" gradientUnits="objectBoundingBox">
      <stop offset="0" stop-color="#d4d4d4"/>
      <stop offset="1" stop-color="#484646"/>
    </linearGradient>
    <filter id="Path_1187" x="0" y="0" width="73.974" height="34.792" filterUnits="userSpaceOnUse">
      <feOffset dy="3" input="SourceAlpha"/>
      <feGaussianBlur stdDeviation="3" result="blur-2"/>
      <feFlood flood-opacity="0.161"/>
      <feComposite operator="in" in2="blur-2"/>
      <feComposite in="SourceGraphic"/>
    </filter>
  </defs>
  <g id="Group_592" data-name="Group 592" transform="translate(-63.228 -58.607)">
    <g id="Group_590" data-name="Group 590" transform="translate(135.076 65.44)">
      <path id="Path_1188" data-name="Path 1188" d="M479.808,491.677V469.719h5.932v17.167H494.2v4.791Z" transform="translate(-479.808 -469.629)" fill="#333"/>
      <path id="Path_1189" data-name="Path 1189" d="M548.893,469.719v13.217a8.869,8.869,0,0,1-2.441,6.676q-2.441,2.365-7.037,2.366-4.491,0-6.9-2.3a8.7,8.7,0,0,1-2.411-6.608V469.719h5.963v12.886a5.28,5.28,0,0,0,.871,3.38,3.755,3.755,0,0,0,5.2.007,5.588,5.588,0,0,0,.819-3.417V469.719Z" transform="translate(-512.322 -469.629)" fill="#333"/>
      <path id="Path_1190" data-name="Path 1190" d="M617.2,491.677h-7.78l-8.02-15.47h-.135q.285,3.65.285,5.572v9.9h-5.257V469.719h7.75l7.99,15.259h.09q-.21-3.319-.21-5.332v-9.927H617.2Z" transform="translate(-555.107 -469.629)" fill="#333"/>
      <path id="Path_1191" data-name="Path 1191" d="M677.979,491.512,676.9,487.4h-7.134l-1.111,4.115h-6.518l7.164-22.048h7.915l7.254,22.048Zm-2.313-8.981-.946-3.6q-.33-1.2-.8-3.109t-.624-2.733q-.135.766-.533,2.523t-1.765,6.924Z" transform="translate(-597.673 -469.464)" fill="#333"/>
      <path id="Path_1192" data-name="Path 1192" d="M737.948,483.687v7.99h-5.933V469.719h7.194q8.951,0,8.952,6.488a6.484,6.484,0,0,1-3.725,5.9l6.4,9.567h-6.728l-4.656-7.99Zm0-4.461h1.111q3.11,0,3.109-2.748,0-2.268-3.049-2.268h-1.171Z" transform="translate(-642.847 -469.629)" fill="#333"/>
    </g>
    <g id="Group_591" data-name="Group 591" transform="translate(135.003 92.458)">
      <path id="Path_1193" data-name="Path 1193" d="M555.113,550.668h4.239a4.39,4.39,0,0,1,1.592.276,3.674,3.674,0,0,1,1.226.763,3.331,3.331,0,0,1,.788,1.162,3.846,3.846,0,0,1,.276,1.47,3.054,3.054,0,0,1-.195,1.1,3.284,3.284,0,0,1-.536.926,3.972,3.972,0,0,1-.8.731,4.032,4.032,0,0,1-.958.5l-.016.114,3.119,4.467v.13h-2.518l-3-4.369h-1.023V562.3h-2.193Zm4.223,5.247a1.711,1.711,0,0,0,1.227-.455,1.522,1.522,0,0,0,.479-1.153,1.774,1.774,0,0,0-.105-.6,1.509,1.509,0,0,0-.317-.519,1.558,1.558,0,0,0-.528-.366,1.809,1.809,0,0,0-.723-.137h-2.062v3.232Z" transform="translate(-555.113 -550.408)" fill="#656565"/>
      <path id="Path_1194" data-name="Path 1194" d="M579.323,562.322a6.116,6.116,0,0,1-2.412-.471,5.876,5.876,0,0,1-3.2-3.224,6.351,6.351,0,0,1,0-4.759,5.878,5.878,0,0,1,3.2-3.225,6.412,6.412,0,0,1,4.824,0,5.882,5.882,0,0,1,3.2,3.225,6.345,6.345,0,0,1,0,4.759,5.984,5.984,0,0,1-1.275,1.933,5.923,5.923,0,0,1-1.925,1.291A6.119,6.119,0,0,1,579.323,562.322Zm0-2.079a3.933,3.933,0,0,0,1.518-.293,3.823,3.823,0,0,0,1.234-.812,3.7,3.7,0,0,0,.828-1.259,4.584,4.584,0,0,0,0-3.265,3.707,3.707,0,0,0-.828-1.259,3.831,3.831,0,0,0-1.234-.812,4.1,4.1,0,0,0-3.037,0,3.829,3.829,0,0,0-1.234.812,3.705,3.705,0,0,0-.828,1.259,4.59,4.59,0,0,0,0,3.265,3.7,3.7,0,0,0,.828,1.259,3.821,3.821,0,0,0,1.234.812A3.934,3.934,0,0,0,579.323,560.243Z" transform="translate(-563.746 -550.172)" fill="#656565"/>
      <path id="Path_1195" data-name="Path 1195" d="M599.815,550.668h4.548a4.067,4.067,0,0,1,1.4.236,3.575,3.575,0,0,1,1.129.649,3.118,3.118,0,0,1,.756.967,2.815,2.815,0,0,1-.17,2.737,2.933,2.933,0,0,1-1.113.95v.13a3.172,3.172,0,0,1,1.438,1.016,2.685,2.685,0,0,1,.544,1.713,2.932,2.932,0,0,1-.3,1.34,3.1,3.1,0,0,1-.821,1.015,3.771,3.771,0,0,1-1.21.65,4.734,4.734,0,0,1-1.487.227h-4.71Zm4.386,4.743a1.6,1.6,0,0,0,1.178-.414,1.373,1.373,0,0,0,.008-1.958,1.515,1.515,0,0,0-1.121-.406h-2.258v2.778Zm.244,4.873a1.775,1.775,0,0,0,1.267-.415,1.4,1.4,0,0,0,.439-1.064,1.438,1.438,0,0,0-.446-1.08,1.841,1.841,0,0,0-1.324-.431h-2.371v2.989Z" transform="translate(-576.393 -550.408)" fill="#656565"/>
      <path id="Path_1196" data-name="Path 1196" d="M624.3,562.322a6.115,6.115,0,0,1-2.412-.471,5.921,5.921,0,0,1-1.925-1.291,5.985,5.985,0,0,1-1.275-1.933,6.352,6.352,0,0,1,0-4.759,5.881,5.881,0,0,1,3.2-3.225,6.412,6.412,0,0,1,4.824,0,5.879,5.879,0,0,1,3.2,3.225,6.345,6.345,0,0,1,0,4.759,5.876,5.876,0,0,1-3.2,3.224A6.119,6.119,0,0,1,624.3,562.322Zm0-2.079a3.938,3.938,0,0,0,1.519-.293,3.825,3.825,0,0,0,1.234-.812,3.7,3.7,0,0,0,.828-1.259,4.582,4.582,0,0,0,0-3.265,3.706,3.706,0,0,0-.828-1.259,3.833,3.833,0,0,0-1.234-.812,4.1,4.1,0,0,0-3.038,0,3.826,3.826,0,0,0-1.235.812,3.705,3.705,0,0,0-.828,1.259,4.59,4.59,0,0,0,0,3.265,3.7,3.7,0,0,0,.828,1.259,3.818,3.818,0,0,0,1.235.812A3.931,3.931,0,0,0,624.3,560.243Z" transform="translate(-585.158 -550.172)" fill="#656565"/>
      <path id="Path_1197" data-name="Path 1197" d="M645.627,562.3v-9.55h-3.249v-2.08h8.69v2.08h-3.249v9.55Z" transform="translate(-596.654 -550.408)" fill="#656565"/>
      <path id="Path_1198" data-name="Path 1198" d="M661.938,550.668h2.193V562.3h-2.193Z" transform="translate(-605.965 -550.408)" fill="#656565"/>
      <path id="Path_1199" data-name="Path 1199" d="M679.929,560.194a5.775,5.775,0,0,1-2.03,1.583,6.484,6.484,0,0,1-5.027.073,5.893,5.893,0,0,1-3.208-3.208,6.329,6.329,0,0,1,0-4.792,5.9,5.9,0,0,1,3.208-3.208,6.123,6.123,0,0,1,2.412-.471,5.849,5.849,0,0,1,2.461.488,5.722,5.722,0,0,1,1.892,1.413l-1.543,1.494a4.133,4.133,0,0,0-1.194-.958,3.373,3.373,0,0,0-1.6-.357,4.087,4.087,0,0,0-1.527.284,3.7,3.7,0,0,0-1.243.8,3.8,3.8,0,0,0-.836,1.259,4.56,4.56,0,0,0,0,3.3,3.788,3.788,0,0,0,.836,1.259,3.69,3.69,0,0,0,1.243.8,4.09,4.09,0,0,0,1.527.284,3.651,3.651,0,0,0,1.73-.4,4.26,4.26,0,0,0,1.34-1.129Z" transform="translate(-609.419 -550.172)" fill="#656565"/>
      <path id="Path_1200" data-name="Path 1200" d="M695.88,562.322a4.8,4.8,0,0,1-1.429-.211,4.123,4.123,0,0,1-1.251-.634,4.375,4.375,0,0,1-.991-1.032,4.987,4.987,0,0,1-.665-1.421l2.062-.812a3.152,3.152,0,0,0,.8,1.454,2.006,2.006,0,0,0,1.494.577,2.4,2.4,0,0,0,.658-.09,1.959,1.959,0,0,0,.568-.26,1.257,1.257,0,0,0,.4-.431,1.2,1.2,0,0,0,.146-.6,1.447,1.447,0,0,0-.113-.584,1.373,1.373,0,0,0-.382-.488,3.421,3.421,0,0,0-.7-.439,10.645,10.645,0,0,0-1.064-.439l-.715-.26a5.429,5.429,0,0,1-.951-.439,4.145,4.145,0,0,1-.869-.665,3.289,3.289,0,0,1-.642-.918,2.74,2.74,0,0,1-.252-1.194,3.059,3.059,0,0,1,.268-1.275,3.114,3.114,0,0,1,.763-1.04,3.6,3.6,0,0,1,1.185-.7,4.469,4.469,0,0,1,1.535-.252,4.4,4.4,0,0,1,1.518.236,3.747,3.747,0,0,1,1.089.6,3.339,3.339,0,0,1,.723.8,3.9,3.9,0,0,1,.406.828l-1.933.813a2.055,2.055,0,0,0-.592-.877,1.691,1.691,0,0,0-1.178-.39,2.009,2.009,0,0,0-1.186.332,1.02,1.02,0,0,0-.472.87,1.1,1.1,0,0,0,.455.885,4.967,4.967,0,0,0,1.445.707l.731.243a8.314,8.314,0,0,1,1.275.561,3.992,3.992,0,0,1,.991.755,3.067,3.067,0,0,1,.633,1,3.529,3.529,0,0,1,.22,1.292,3.18,3.18,0,0,1-.365,1.568,3.362,3.362,0,0,1-.934,1.08,4.061,4.061,0,0,1-1.284.634A4.91,4.91,0,0,1,695.88,562.322Z" transform="translate(-620.058 -550.172)" fill="#656565"/>
    </g>
    <g id="Component_4_2" data-name="Component 4 – 2" transform="translate(72.228 64.607)">
      <g id="Group_587" data-name="Group 587" transform="translate(0 0)">
        <rect id="Rectangle_87" data-name="Rectangle 87" width="40" height="11.195" rx="5.597" transform="translate(11.195 0) rotate(90)" fill="url(#linear-gradient)"/>
        <g transform="matrix(1, 0, 0, 1, -9, -6)" filter="url(#Path_1186)">
          <path id="Path_1186-2" data-name="Path 1186" d="M484.6,353.374h44.779a5.594,5.594,0,0,1,5.6,5.464,5.679,5.679,0,0,1-5.722,5.731H484.6a5.594,5.594,0,0,1-5.6-5.6V347.777A5.6,5.6,0,0,0,484.6,353.374Z" transform="translate(-470 -318.57)" fill="url(#linear-gradient-2)"/>
        </g>
      </g>
      <g id="Group_588" data-name="Group 588">
        <rect id="Rectangle_88" data-name="Rectangle 88" width="40" height="11.195" rx="5.597" transform="translate(44.779 40) rotate(-90)" fill="url(#linear-gradient-3)"/>
        <g transform="matrix(1, 0, 0, 1, -9, -6)" filter="url(#Path_1187)">
          <path id="Path_1187-2" data-name="Path 1187" d="M529.376,233.195H484.6a5.6,5.6,0,1,1,0-11.195h44.779a5.594,5.594,0,0,1,5.6,5.6v11.195A5.6,5.6,0,0,0,529.376,233.195Z" transform="translate(-470 -216)" fill="url(#linear-gradient-4)"/>
        </g>
      </g>
    </g>
  </g>
</svg>
