<svg xmlns="http://www.w3.org/2000/svg" xmlns:xlink="http://www.w3.org/1999/xlink" width="73.974" height="52" viewBox="0 0 73.974 52">
  <defs>
    <linearGradient id="linear-gradient" x1="-1.126" y1="5.045" x2="-2.126" y2="5.045" gradientUnits="objectBoundingBox">
      <stop offset="0" stop-color="#d50000"/>
      <stop offset="0.314" stop-color="#ee5a5a"/>
      <stop offset="1" stop-color="#ff9797"/>
    </linearGradient>
    <linearGradient id="linear-gradient-2" x1="-0.107" y1="0.063" x2="0.413" y2="-0.937" gradientUnits="objectBoundingBox">
      <stop offset="0" stop-color="#ff2e2e"/>
      <stop offset="0.425" stop-color="#d50000"/>
      <stop offset="1" stop-color="#950000"/>
    </linearGradient>
    <filter id="Path_1186" x="0" y="17.208" width="73.974" height="34.792" filterUnits="userSpaceOnUse">
      <feOffset dy="-3" input="SourceAlpha"/>
      <feGaussianBlur stdDeviation="3" result="blur"/>
      <feFlood flood-opacity="0.161"/>
      <feComposite operator="in" in2="blur"/>
      <feComposite in="SourceGraphic"/>
    </filter>
    <linearGradient id="linear-gradient-3" x1="-0.39" y1="4.402" x2="-1.39" y2="4.402" gradientUnits="objectBoundingBox">
      <stop offset="0" stop-color="#8e8e8e"/>
      <stop offset="1" stop-color="#006d15"/>
    </linearGradient>
    <linearGradient id="linear-gradient-4" y1="0.451" x2="1.032" y2="0.219" gradientUnits="objectBoundingBox">
      <stop offset="0" stop-color="#d4d4d4"/>
      <stop offset="1" stop-color="#484646"/>
    </linearGradient>
    <filter id="Path_1187" x="0" y="0" width="73.974" height="34.792" filterUnits="userSpaceOnUse">
      <feOffset dy="3" input="SourceAlpha"/>
      <feGaussianBlur stdDeviation="3" result="blur-2"/>
      <feFlood flood-opacity="0.161"/>
      <feComposite operator="in" in2="blur-2"/>
      <feComposite in="SourceGraphic"/>
    </filter>
  </defs>
  <g id="Component_4_7" data-name="Component 4 – 7" transform="translate(9 6)">
    <g id="Group_587" data-name="Group 587" transform="translate(0 0)">
      <rect id="Rectangle_87" data-name="Rectangle 87" width="40" height="11.195" rx="5.597" transform="translate(11.195 0) rotate(90)" fill="url(#linear-gradient)"/>
      <g transform="matrix(1, 0, 0, 1, -9, -6)" filter="url(#Path_1186)">
        <path id="Path_1186-2" data-name="Path 1186" d="M484.6,353.374h44.779a5.594,5.594,0,0,1,5.6,5.464,5.679,5.679,0,0,1-5.722,5.731H484.6a5.594,5.594,0,0,1-5.6-5.6V347.777A5.6,5.6,0,0,0,484.6,353.374Z" transform="translate(-470 -318.57)" fill="url(#linear-gradient-2)"/>
      </g>
    </g>
    <g id="Group_588" data-name="Group 588">
      <rect id="Rectangle_88" data-name="Rectangle 88" width="40" height="11.195" rx="5.597" transform="translate(44.779 40) rotate(-90)" fill="url(#linear-gradient-3)"/>
      <g transform="matrix(1, 0, 0, 1, -9, -6)" filter="url(#Path_1187)">
        <path id="Path_1187-2" data-name="Path 1187" d="M529.376,233.195H484.6a5.6,5.6,0,1,1,0-11.195h44.779a5.594,5.594,0,0,1,5.6,5.6v11.195A5.6,5.6,0,0,0,529.376,233.195Z" transform="translate(-470 -216)" fill="url(#linear-gradient-4)"/>
      </g>
    </g>
  </g>
</svg>
