<svg xmlns="http://www.w3.org/2000/svg" xmlns:xlink="http://www.w3.org/1999/xlink" width="74.051" height="52" viewBox="0 0 74.051 52"><defs><style>.a{fill:url(#a);}.b{filter:url(#g);}.c{filter:url(#c);}</style><linearGradient id="a" x1="-1.126" y1="5.045" x2="-2.126" y2="5.045" gradientUnits="objectBoundingBox"><stop offset="0" stop-color="#fff"/><stop offset="0.314" stop-color="#ee5a5a"/><stop offset="1" stop-color="#ff9797"/></linearGradient><filter id="c" x="0" y="16.961" width="74.051" height="35.039" filterUnits="userSpaceOnUse"><feOffset dy="-3" input="SourceAlpha"/><feGaussianBlur stdDeviation="3" result="d"/><feFlood flood-opacity="0.161"/><feComposite operator="in" in2="d"/><feComposite in="SourceGraphic"/></filter><filter id="g" x="0" y="0" width="74.051" height="35.039" filterUnits="userSpaceOnUse"><feOffset dy="3" input="SourceAlpha"/><feGaussianBlur stdDeviation="3" result="h"/><feFlood flood-opacity="0.161"/><feComposite operator="in" in2="h"/><feComposite in="SourceGraphic"/></filter></defs><g transform="translate(-515.049 -261.61)"><g transform="translate(524.049 267.61)"><rect class="a" width="40" height="11.359" rx="5.68" transform="translate(11.359 0) rotate(90)"/><g class="c" transform="matrix(1, 0, 0, 1, -9, -6)"><path class="a" d="M484.605,353.457h44.841a5.551,5.551,0,0,1,3.964,1.663,5.7,5.7,0,0,1-4.091,9.7H484.605a5.551,5.551,0,0,1-3.964-1.663A5.7,5.7,0,0,1,479,359.136V347.777A5.643,5.643,0,0,0,484.605,353.457Z" transform="translate(-470 -318.82)"/></g><rect class="a" width="40" height="11.359" rx="5.68" transform="translate(44.692 40) rotate(-90)"/><g class="b" transform="matrix(1, 0, 0, 1, -9, -6)"><path class="a" d="M529.446,233.359H484.605a5.551,5.551,0,0,1-3.964-1.663A5.7,5.7,0,0,1,479,227.68a5.643,5.643,0,0,1,5.605-5.68h44.841a5.551,5.551,0,0,1,3.964,1.663,5.7,5.7,0,0,1,1.641,4.017v11.359A5.643,5.643,0,0,0,529.446,233.359Z" transform="translate(-470 -216)"/></g></g></g></svg>